<svg width="25" height="24" viewBox="0 0 25 24" fill="none" xmlns="http://www.w3.org/2000/svg">
  <path d="M12.8042 6.60977C9.82297 6.60977 7.41829 9.01445 7.41829 11.9957C7.41829 14.977 9.82297 17.3816 12.8042 17.3816C15.7855 17.3816 18.1902 14.977 18.1902 11.9957C18.1902 9.01445 15.7855 6.60977 12.8042 6.60977ZM12.8042 15.4973C10.8777 15.4973 9.30266 13.927 9.30266 11.9957C9.30266 10.0645 10.873 8.49414 12.8042 8.49414C14.7355 8.49414 16.3058 10.0645 16.3058 11.9957C16.3058 13.927 14.7308 15.4973 12.8042 15.4973ZM19.6667 6.38945C19.6667 7.08789 19.1042 7.6457 18.4105 7.6457C17.712 7.6457 17.1542 7.0832 17.1542 6.38945C17.1542 5.6957 17.7167 5.1332 18.4105 5.1332C19.1042 5.1332 19.6667 5.6957 19.6667 6.38945ZM23.2339 7.66445C23.1542 5.98164 22.7698 4.49102 21.537 3.26289C20.3089 2.03477 18.8183 1.65039 17.1355 1.56602C15.4011 1.46758 10.2027 1.46758 8.46829 1.56602C6.79016 1.6457 5.29954 2.03008 4.06672 3.2582C2.83391 4.48633 2.45422 5.97695 2.36985 7.65977C2.27141 9.39414 2.27141 14.5926 2.36985 16.327C2.44954 18.0098 2.83391 19.5004 4.06672 20.7285C5.29954 21.9566 6.78547 22.341 8.46829 22.4254C10.2027 22.5238 15.4011 22.5238 17.1355 22.4254C18.8183 22.3457 20.3089 21.9613 21.537 20.7285C22.7652 19.5004 23.1495 18.0098 23.2339 16.327C23.3323 14.5926 23.3323 9.39883 23.2339 7.66445ZM20.9933 18.1879C20.6277 19.1066 19.9198 19.8145 18.9964 20.1848C17.6136 20.7332 14.3323 20.6066 12.8042 20.6066C11.2761 20.6066 7.99016 20.7285 6.61204 20.1848C5.69329 19.8191 4.98547 19.1113 4.61516 18.1879C4.06672 16.8051 4.19329 13.5238 4.19329 11.9957C4.19329 10.4676 4.07141 7.18164 4.61516 5.80352C4.98079 4.88477 5.6886 4.17695 6.61204 3.80664C7.99485 3.2582 11.2761 3.38477 12.8042 3.38477C14.3323 3.38477 17.6183 3.26289 18.9964 3.80664C19.9152 4.17227 20.623 4.88008 20.9933 5.80352C21.5417 7.18633 21.4152 10.4676 21.4152 11.9957C21.4152 13.5238 21.5417 16.8098 20.9933 18.1879Z" fill="currentColor" />
</svg>
