<svg width="25" height="24" viewBox="0 0 25 24" fill="none" xmlns="http://www.w3.org/2000/svg">
  <path d="M23.503 6.50346C23.2413 5.51804 22.4702 4.74196 21.4912 4.47858C19.7166 4 12.6008 4 12.6008 4C12.6008 4 5.48492 4 3.71029 4.47858C2.73125 4.742 1.96017 5.51804 1.69846 6.50346C1.22296 8.28958 1.22296 12.0162 1.22296 12.0162C1.22296 12.0162 1.22296 15.7428 1.69846 17.5289C1.96017 18.5143 2.73125 19.258 3.71029 19.5214C5.48492 20 12.6008 20 12.6008 20C12.6008 20 19.7166 20 21.4912 19.5214C22.4702 19.258 23.2413 18.5143 23.503 17.5289C23.9785 15.7428 23.9785 12.0162 23.9785 12.0162C23.9785 12.0162 23.9785 8.28958 23.503 6.50346ZM10.2735 15.3996V8.63271L16.2209 12.0163L10.2735 15.3996Z" fill="currentColor" />
</svg>
