<svg width="100%" height="100%" viewBox="0 0 378 67" fill="none" xmlns="http://www.w3.org/2000/svg">
  <path d="M117.09 9.98859H124.516V57.0486H115.837L93.2935 20.0005V57.0486H85.8012V9.98859H95.0133L117.09 46.1168V9.98859ZM165.217 39.4911V40.491C165.217 50.9028 158.591 57.9285 148.312 57.9285C138.034 57.9285 131.475 50.9028 131.475 40.491V39.4911C131.475 29.0792 138.101 22.1202 148.312 22.1202C158.524 22.1202 165.217 29.0792 165.217 39.4911ZM157.791 39.4911C157.791 32.1321 154.538 28.026 148.312 28.026C142.087 28.026 138.9 32.1321 138.9 39.4911V40.491C138.9 47.8499 142.153 52.0227 148.312 52.0227C154.472 52.0227 157.791 47.8499 157.791 40.491V39.4911ZM196.239 8.0022H203.531V57.0486H196.772L196.572 51.3428C194.919 54.5956 191.066 57.9018 185.241 57.9018C176.295 57.9018 170.523 50.6762 170.523 40.4643V39.4644C170.523 29.3192 176.095 22.0935 185.107 22.0935C190.546 22.0935 194.253 24.6798 196.239 27.8661V8.0022ZM196.506 39.4911C196.506 32.1321 193.119 27.8927 187.094 27.8927C181.068 27.8927 177.948 32.1321 177.948 39.4911V40.491C177.948 47.7833 181.201 52.0227 187.094 52.0227C192.986 52.0227 196.506 47.8499 196.506 40.491V39.4911ZM243.166 41.6108H217.649C217.983 48.4365 221.289 52.0893 227.061 52.0893C231.834 52.0893 234.687 49.8363 235.673 46.3835H242.966C241.313 53.5424 235.607 57.9152 227.061 57.9152C216.449 57.9152 210.157 50.8228 210.157 40.4776V39.4778C210.157 29.1326 216.583 22.1069 227.061 22.1069C238.26 22.1069 243.699 29.9324 243.166 41.5975V41.6108ZM235.687 36.3715C235.153 31.0656 232.367 27.8927 227.008 27.8927C221.649 27.8927 218.596 30.8123 217.796 36.3715H235.687ZM280.96 29.6125H257.83V9.98859H250.071V57.0486H257.83V36.1049H280.96V57.0486H288.719V9.98859H280.96V29.6125ZM296.998 57.0486H304.29V22.9068H296.998V57.0486ZM296.865 17.9475H304.49V8.0022H296.865V17.9475ZM326.234 49.623L317.089 22.9068H309.396L322.061 57.0486H330.153L342.752 22.9068H335.259L326.247 49.623H326.234ZM377.867 41.6108H352.35C352.684 48.4365 355.99 52.0893 361.762 52.0893C366.535 52.0893 369.388 49.8363 370.374 46.3835H377.667C376.014 53.5424 370.308 57.9152 361.762 57.9152C351.15 57.9152 344.858 50.8228 344.858 40.4776V39.4778C344.858 29.1326 351.284 22.1069 361.762 22.1069C372.961 22.1069 378.4 29.9324 377.867 41.5975V41.6108ZM370.374 36.3715C369.841 31.0656 367.055 27.8927 361.696 27.8927C356.336 27.8927 353.283 30.8123 352.484 36.3715H370.374ZM56.392 15.0279L31.3022 0.549922C30.0224 -0.183307 28.436 -0.183307 27.1562 0.549922L2.06638 15.0279C0.786556 15.7744 0 17.1342 0 18.614V47.5833C0 49.0631 0.786556 50.4362 2.06638 51.1694L27.1562 65.6474C27.7961 66.0207 28.516 66.2073 29.2225 66.2073C29.9291 66.2073 30.649 66.0207 31.2889 65.6474L56.3787 51.1694C57.6585 50.4229 58.4451 49.0631 58.4451 47.5833V18.614C58.4451 17.1342 57.6585 15.7611 56.3787 15.0279H56.392ZM50.1796 45.197L29.2359 57.2886L8.29216 45.197V21.0137L29.2359 8.92207L50.1796 21.0137V45.197Z" fill="#09090B"/>
</svg>
