<svg xmlns="http://www.w3.org/2000/svg" xmlns:xlink="http://www.w3.org/1999/xlink" width="242" height="29" viewBox="0 0 242 29">
  <defs>
    <polygon id="netnode-claim-a" points="0 .266 131.639 .266 131.639 20.473 0 20.473"/>
  </defs>
  <g fill="none" fill-rule="evenodd">
    <path fill="#000" fill-rule="nonzero" d="M148.75,0 C148.75,-0.138071187 148.861929,-0.25 149,-0.25 C149.138071,-0.25 149.25,-0.138071187 149.25,0 L149.25,28.0696118 C149.25,28.207683 149.138071,28.3196118 149,28.3196118 C148.861929,28.3196118 148.75,28.207683 148.75,28.0696118 L148.75,0 Z"/>
    <g transform="translate(0 3.79)">
      <mask id="netnode-claim-b" fill="#fff">
        <use xlink:href="#netnode-claim-a"/>
      </mask>
      <path fill="#006CB2" d="M17.9221697,8.28794276 L17.9213737,19.3291928 C17.9213737,19.7702059 17.5639461,20.1276336 17.1229329,20.1276336 L13.7413013,20.1276336 C13.3002882,20.1276336 12.9428605,19.7702059 12.9428605,19.3283967 L12.9436566,8.45909408 C12.9436566,6.2118375 11.5784263,4.58948224 8.93314342,4.58948224 C6.31572237,4.58948224 4.94969605,6.2118375 4.94969605,8.45909408 L4.9489,19.3291928 C4.9489,19.7702059 4.59147237,20.1276336 4.15045921,20.1276336 L0.798281579,20.1276336 C0.357268421,20.1276336 -0.000159210526,19.7702059 -0.000159210526,19.3283967 L0.000636842105,8.31660066 C0.000636842105,3.59441645 2.84493289,0.266120395 8.93314342,0.266120395 C15.0205579,0.266120395 17.9221697,3.62307434 17.9221697,8.28794276 Z M71.1247553,8.28794276 L71.1239592,19.3291928 C71.1239592,19.7702059 70.7665316,20.1276336 70.3255184,20.1276336 L66.9438868,20.1276336 C66.5028737,20.1276336 66.1454461,19.7702059 66.1454461,19.3283967 L66.1470382,8.45909408 C66.1470382,6.2118375 64.7810118,4.58948224 62.1357289,4.58948224 C59.5183079,4.58948224 58.1530776,6.2118375 58.1530776,8.45909408 L58.1522816,19.3291928 C58.1514855,19.7702059 57.7940579,20.1276336 57.3538408,20.1276336 L54.0008671,20.1276336 C53.5598539,20.1276336 53.2024263,19.7702059 53.2032224,19.3283967 L53.2040184,8.31660066 C53.2040184,3.59441645 56.0475184,0.266120395 62.1357289,0.266120395 C68.2239395,0.266120395 71.1247553,3.62307434 71.1247553,8.28794276 Z M117.443874,19.3100875 L117.443874,1.57801513 C117.443874,1.12824539 117.808466,0.763653289 118.259032,0.763653289 L130.823926,0.763653289 C131.273696,0.763653289 131.639084,1.12824539 131.639084,1.57801513 L131.639084,4.30290329 C131.639084,4.75346908 131.273696,5.11806118 130.823926,5.11806118 L122.437512,5.11806118 L122.437512,8.13669276 L130.620933,8.13669276 C131.071499,8.13669276 131.436091,8.50128487 131.436091,8.95105461 L131.436091,11.6759428 C131.436091,12.1257125 131.071499,12.4903046 130.620933,12.4903046 L122.437512,12.4903046 L122.437512,15.7700414 L130.823926,15.7700414 C131.273696,15.7700414 131.639084,16.1354296 131.639084,16.5851993 L131.639084,19.3100875 C131.639084,19.7598572 131.273696,20.1244493 130.823926,20.1244493 L118.259032,20.1244493 C117.808466,20.1244493 117.443874,19.7598572 117.443874,19.3100875 Z M109.896499,10.4293243 C109.896499,7.44014671 108.09742,5.11806118 104.556578,5.11806118 L101.391472,5.11806118 L101.391472,15.7700414 L104.527124,15.7700414 C107.92388,15.7700414 109.896499,13.3038704 109.896499,10.4293243 Z M96.3994263,20.1244493 L96.3994263,0.763653289 L104.527124,0.763653289 C110.622499,0.763653289 115.005564,4.42151513 115.005564,10.4293243 C115.005564,16.4379296 110.622499,20.1244493 104.556578,20.1244493 L96.3994263,20.1244493 Z M88.8520513,10.4587783 C88.8520513,7.29446908 86.790275,4.85615987 83.5981039,4.85615987 C80.4043408,4.85615987 78.3154987,7.29446908 78.3154987,10.4587783 C78.3154987,13.5936336 80.4043408,16.0613967 83.5981039,16.0613967 C86.790275,16.0613967 88.8520513,13.5936336 88.8520513,10.4587783 Z M73.2350908,10.4587783 C73.2350908,4.56560066 77.6770645,0.443640132 83.5981039,0.443640132 C89.5191434,0.443640132 93.9316632,4.56560066 93.9316632,10.4587783 C93.9316632,16.3511599 89.5191434,20.4731204 83.5981039,20.4731204 C77.6770645,20.4731204 73.2350908,16.3511599 73.2350908,10.4587783 Z M41.6684197,19.3100875 L41.6684197,5.11806118 L37.0552947,5.11806118 C36.605525,5.11806118 36.2409329,4.75346908 36.2409329,4.30290329 L36.2409329,1.57801513 C36.2409329,1.12824539 36.605525,0.763653289 37.0552947,0.763653289 L51.2457289,0.763653289 C51.6954987,0.763653289 52.0600908,1.12824539 52.0600908,1.57801513 L52.0600908,4.30290329 C52.0600908,4.75346908 51.6954987,5.11806118 51.2457289,5.11806118 L46.6612618,5.11806118 L46.6612618,19.3100875 C46.6612618,19.7598572 46.2966697,20.1244493 45.8461039,20.1244493 L42.4835776,20.1244493 C42.0338079,20.1244493 41.6684197,19.7598572 41.6684197,19.3100875 Z M20.5332224,19.3100875 L20.5332224,1.57801513 C20.5332224,1.12824539 20.8986105,0.763653289 21.3483803,0.763653289 L33.913275,0.763653289 C34.3630447,0.763653289 34.7284329,1.12824539 34.7284329,1.57801513 L34.7284329,4.30290329 C34.7284329,4.75346908 34.3630447,5.11806118 33.913275,5.11806118 L25.5260645,5.11806118 L25.5260645,8.13669276 L33.7102816,8.13669276 C34.1600513,8.13669276 34.5254395,8.50128487 34.5254395,8.95105461 L34.5254395,11.6759428 C34.5254395,12.1257125 34.1600513,12.4903046 33.7102816,12.4903046 L25.5260645,12.4903046 L25.5260645,15.7700414 L33.913275,15.7700414 C34.3630447,15.7700414 34.7284329,16.1354296 34.7284329,16.5851993 L34.7284329,19.3100875 C34.7284329,19.7598572 34.3630447,20.1244493 33.913275,20.1244493 L21.3483803,20.1244493 C20.8986105,20.1244493 20.5332224,19.7598572 20.5332224,19.3100875 Z" mask="url(#netnode-claim-b)"/>
    </g>
    <path fill="#18150D" d="M169.516,19.626 C166.744,19.626 164.588,17.414 164.588,14.684 C164.588,11.94 166.744,9.728 169.516,9.728 C170.972,9.728 172.246,10.33 173.086,11.268 L171.672,12.486 C171.126,11.898 170.356,11.534 169.516,11.534 C167.836,11.534 166.534,12.962 166.534,14.684 C166.534,16.406 167.836,17.89 169.516,17.89 C170.776,17.89 171.77,17.288 172.022,16.28 C172.05,16.21 172.064,16.126 172.078,16.042 L169.348,16.042 L169.348,14.46 L174.206,14.46 C174.206,18.03 172.288,19.626 169.516,19.626 Z M178.602,19.626 C176.74,19.626 175.088,18.282 175.088,16.224 C175.088,14.152 176.74,12.808 178.602,12.808 C180.464,12.808 182.116,14.152 182.116,16.224 C182.116,18.282 180.464,19.626 178.602,19.626 Z M178.602,17.918 C179.512,17.918 180.254,17.232 180.254,16.224 C180.254,15.202 179.512,14.516 178.602,14.516 C177.692,14.516 176.95,15.202 176.95,16.224 C176.95,17.232 177.692,17.918 178.602,17.918 Z M187.142,19.5 L187.142,9.854 L190.922,9.854 C193.694,9.854 195.304,11.954 195.304,14.698 C195.304,17.428 193.694,19.5 190.922,19.5 L187.142,19.5 Z M189.088,17.778 L190.922,17.778 C192.532,17.778 193.358,16.35 193.358,14.698 C193.358,13.046 192.532,11.576 190.922,11.576 L189.088,11.576 L189.088,17.778 Z M197.768,11.814 C197.138,11.814 196.606,11.324 196.606,10.708 C196.606,10.092 197.138,9.616 197.768,9.616 C198.412,9.616 198.93,10.092 198.93,10.708 C198.93,11.324 198.412,11.814 197.768,11.814 Z M196.858,19.5 L196.858,12.976 L198.692,12.976 L198.692,19.5 L196.858,19.5 Z M205.454,12.976 L207.288,12.976 L207.288,18.604 C207.288,21.46 205.846,22.79 203.536,22.79 C202.136,22.79 200.918,22.006 200.358,20.802 L201.884,20.144 C202.164,20.732 202.836,21.152 203.536,21.152 C204.712,21.152 205.454,20.508 205.454,18.8 L205.454,18.702 C204.978,19.332 204.082,19.626 203.354,19.626 C201.674,19.626 200.148,18.324 200.148,16.224 C200.148,14.124 201.674,12.822 203.354,12.822 C204.096,12.822 204.978,13.116 205.454,13.746 L205.454,12.976 Z M203.704,17.918 C204.6,17.918 205.398,17.218 205.398,16.224 C205.398,15.216 204.558,14.544 203.704,14.544 C202.78,14.544 202.01,15.258 202.01,16.224 C202.01,17.176 202.78,17.918 203.704,17.918 Z M210.046,11.814 C209.416,11.814 208.884,11.324 208.884,10.708 C208.884,10.092 209.416,9.616 210.046,9.616 C210.69,9.616 211.208,10.092 211.208,10.708 C211.208,11.324 210.69,11.814 210.046,11.814 Z M209.136,19.5 L209.136,12.976 L210.97,12.976 L210.97,19.5 L209.136,19.5 Z M216.668,12.976 L216.668,14.39 L215.282,14.39 L215.282,19.5 L213.448,19.5 L213.448,14.39 L212.258,14.39 L212.258,12.976 L213.448,12.976 L213.448,10.582 L215.282,10.582 L215.282,12.976 L216.668,12.976 Z M222.772,12.976 L224.606,12.976 L224.606,19.5 L222.772,19.5 L222.772,18.688 C222.31,19.332 221.4,19.626 220.672,19.626 C218.992,19.626 217.466,18.324 217.466,16.224 C217.466,14.124 218.992,12.822 220.672,12.822 C221.428,12.822 222.31,13.102 222.772,13.76 L222.772,12.976 Z M221.022,17.918 C221.918,17.918 222.716,17.218 222.716,16.224 C222.716,15.216 221.876,14.544 221.022,14.544 C220.098,14.544 219.328,15.258 219.328,16.224 C219.328,17.176 220.098,17.918 221.022,17.918 Z M226.454,19.5 L226.454,9.49 L228.288,9.49 L228.288,19.5 L226.454,19.5 Z M231.046,19.626 C230.416,19.626 229.884,19.15 229.884,18.492 C229.884,17.848 230.416,17.372 231.046,17.372 C231.69,17.372 232.236,17.848 232.236,18.492 C232.236,19.15 231.69,19.626 231.046,19.626 Z"/>
  </g>
</svg>
