<svg xmlns="http://www.w3.org/2000/svg" width="40" height="40" viewBox="0 0 40 40">
  <g fill="none" fill-rule="evenodd">
    <path fill="#006CB6" d="M40,19.9997075 C40,28.089091 35.126922,35.3818885 27.6531969,38.4772978 C20.1794719,41.5727072 11.5770196,39.8610998 5.85736529,34.1406383 C0.137710973,28.4201769 -1.57268249,19.8174833 1.52378147,12.3441952 C4.62024542,4.87090711 11.9137307,-0.00114143797 20.0031141,-1.98757963e-07 C25.3071069,-1.98757963e-07 30.3938207,2.107196 34.1440454,5.85794987 C37.8942701,9.60870374 40.0007483,14.6957148 40,19.9997075"/>
    <path fill="#FFF" d="M29.2531469,17.0377622 L29.2531469,28.3132867 C29.2531469,28.5296547 29.1670053,28.7371203 29.0137478,28.889853 C28.8604903,29.0425856 28.6527304,29.1280163 28.4363636,29.1272775 L24.9846154,29.1272775 C24.7682486,29.1280163 24.5604888,29.0425856 24.4072313,28.889853 C24.2539738,28.7371203 24.1678309,28.5296547 24.1678322,28.3132867 L24.1678322,17.2111888 C24.1678322,14.9174825 22.7692308,13.2587413 20.0699301,13.2587413 C17.3706294,13.2587413 16.0055944,14.9174825 16.0055944,17.2111888 L16.0055944,28.3132867 C16.0055957,28.5296547 15.9194528,28.7371203 15.7661953,28.889853 C15.6129378,29.0425856 15.4051779,29.1280163 15.1888112,29.1272775 L11.765035,29.1272775 C11.3154829,29.1272775 10.951049,28.7628388 10.951049,28.3132867 L10.951049,17.0629371 C10.951049,12.2405594 13.8573427,8.84195804 20.0727273,8.84195804 C26.2881119,8.84195804 29.2531469,12.2685315 29.2531469,17.034965"/>
  </g>
</svg>
